<svg version="1.1" id="Layer_1" xmlns="http://www.w3.org/2000/svg" xmlns:xlink="http://www.w3.org/1999/xlink" x="0px" y="0px"
	 width="64px" height="64px" viewBox="0 0 64 64" enable-background="new 0 0 64 64" xml:space="preserve">
<g>
	<path d="M62.009,64l-0.928-0.395c-1.208-0.572-12.038-5.598-20.08-5.598c-1.558,0-2.93,0.188-4.08,0.562
		c-2.47,0.802-5.061,1.208-7.7,1.208C13.928,59.777,0,46.439,0,31.795C0,14.372,15.117,0.108,33.698,0l0.146,0
		c9.579,0,18.826,5.301,24.733,14.181c5.692,8.555,6.991,18.585,3.474,26.83c-3.215,7.537-0.563,20.563-0.249,22.022L62.009,64z
		 M41.001,57.028c7.271,0,16.424,3.835,19.652,5.299c-0.733-3.775-2.473-14.748,0.492-21.699c3.388-7.941,2.121-17.626-3.389-25.907
		C52.033,6.117,43.094,0.979,33.845,0.979l-0.141,0C15.663,1.085,0.984,14.909,0.984,31.795c0,14.132,13.459,27.003,28.236,27.003
		c2.536,0,5.023-0.39,7.395-1.16C37.864,57.233,39.34,57.028,41.001,57.028z"/>
	<path d="M40.603,27.061c0.563,1.467,0.841,3.089,0.841,4.869c0,1.875-0.272,3.564-0.82,5.058c-0.548,1.507-1.346,2.782-2.389,3.832
		c-1.043,1.056-2.332,1.861-3.872,2.428c-1.534,0.565-3.282,0.844-5.238,0.844c-0.686,0-1.347-0.026-1.986-0.081
		c-0.637-0.055-1.27-0.149-1.888-0.286V21.047c0-0.512,0.201-0.826,0.599-0.942c0.402-0.115,0.971-0.169,1.705-0.169h1.252
		c2.008,0,3.791,0.286,5.362,0.866c1.568,0.58,2.892,1.403,3.965,2.46C39.212,24.319,40.034,25.587,40.603,27.061z"/>
	<path d="M33.534,3.625C17.01,3.72,3.625,16.315,3.625,31.963c0,15.648,17.396,28.799,32.674,23.813
		c7.544-2.458,21.741,4.421,22.114,4.599c-0.048-0.253-2.872-12.907,0.245-20.244C65.379,24.286,51.409,3.523,33.534,3.625z
		 M45.158,37.583c-0.878,1.82-2.095,3.353-3.648,4.608c-1.564,1.254-3.42,2.202-5.563,2.857c-2.147,0.647-4.49,0.975-7.019,0.975
		c-0.742,0-1.389-0.027-1.949-0.075c-0.563-0.04-1.121-0.095-1.678-0.15c-0.556-0.054-1.151-0.102-1.778-0.149
		c-0.626-0.048-1.376-0.068-2.24-0.068c-0.395,0-0.587-0.191-0.587-0.578V22.09c0-0.79-0.181-1.309-0.541-1.567
		c-0.359-0.253-0.827-0.382-1.396-0.382c-0.322,0-0.683,0.027-1.079,0.067l-0.143-1.248c1.825-0.292,3.676-0.53,5.546-0.708
		c1.872-0.179,3.745-0.268,5.62-0.268c1.57,0,3.104,0.083,4.594,0.252c1.496,0.171,2.903,0.458,4.216,0.859
		c1.311,0.402,2.521,0.935,3.615,1.602c1.093,0.662,2.037,1.493,2.827,2.482c0.792,0.989,1.408,2.162,1.852,3.505
		c0.438,1.344,0.661,2.905,0.661,4.664C46.468,33.689,46.029,35.768,45.158,37.583z"/>
</g>
<g>
</g>
<g>
</g>
<g>
</g>
<g>
</g>
<g>
</g>
<g>
</g>
</svg>
