<?xml version="1.0" encoding="utf-8"?>
<!-- Generator: Adobe Illustrator 16.0.0, SVG Export Plug-In . SVG Version: 6.00 Build 0)  -->
<!DOCTYPE svg PUBLIC "-//W3C//DTD SVG 1.1//EN" "http://www.w3.org/Graphics/SVG/1.1/DTD/svg11.dtd">
<svg version="1.1" id="Layer_1" xmlns="http://www.w3.org/2000/svg" xmlns:xlink="http://www.w3.org/1999/xlink" x="0px" y="0px"
	 width="100px" height="100px" viewBox="0 0 100 100" enable-background="new 0 0 100 100" xml:space="preserve">
<g>
	<linearGradient id="SVGID_1_" gradientUnits="userSpaceOnUse" x1="5.2168" y1="51.0771" x2="94.7832" y2="51.0771">
		<stop  offset="0" style="stop-color:#38404A"/>
		<stop  offset="0.1237" style="stop-color:#49454E"/>
		<stop  offset="0.3441" style="stop-color:#F26869"/>
		<stop  offset="0.629" style="stop-color:#F26869"/>
		<stop  offset="0.8172" style="stop-color:#5C4A52"/>
		<stop  offset="1" style="stop-color:#38404A"/>
	</linearGradient>
	<path fill="#FDE9E9" stroke="url(#SVGID_1_)" stroke-width="5" stroke-miterlimit="10" d="M89.722,62.782
		c-4.688,11.656-0.352,31.852-0.352,31.852s-21.574-11.16-32.966-7.236C33.637,95.237,7.717,74.547,7.717,49.931
		c0-24.612,19.953-44.417,44.566-44.564C78.917,5.208,99.743,37.856,89.722,62.782z"/>
	<g>
		<linearGradient id="SVGID_2_" gradientUnits="userSpaceOnUse" x1="29.8994" y1="50" x2="70.0996" y2="50">
			<stop  offset="0" style="stop-color:#38404A"/>
			<stop  offset="0.1237" style="stop-color:#49454E"/>
			<stop  offset="0.3441" style="stop-color:#F26869"/>
			<stop  offset="0.629" style="stop-color:#F26869"/>
			<stop  offset="0.8172" style="stop-color:#5C4A52"/>
			<stop  offset="1" style="stop-color:#38404A"/>
		</linearGradient>
		<path fill="url(#SVGID_2_)" stroke="#38404A" stroke-miterlimit="10" d="M35.107,69.913c-0.545,0-0.817-0.284-0.817-0.851V35.466
			c0-1.157-0.25-1.924-0.749-2.298c-0.5-0.374-1.146-0.562-1.94-0.562c-0.455,0-0.953,0.035-1.498,0.102l-0.205-1.838
			c2.542-0.43,5.111-0.776,7.709-1.038c2.599-0.261,5.202-0.392,7.813-0.392c2.178,0,4.306,0.125,6.382,0.374
			c2.076,0.25,4.028,0.669,5.854,1.26c1.827,0.59,3.501,1.373,5.021,2.349c1.52,0.976,2.83,2.19,3.931,3.642
			c1.101,1.453,1.957,3.166,2.57,5.141c0.613,1.974,0.919,4.255,0.919,6.841c0,3.428-0.607,6.475-1.821,9.14
			c-1.214,2.667-2.905,4.919-5.071,6.758c-2.167,1.837-4.743,3.233-7.727,4.187c-2.984,0.952-6.236,1.429-9.753,1.429
			c-1.021,0-1.923-0.034-2.706-0.103c-0.783-0.066-1.561-0.142-2.332-0.22c-0.772-0.08-1.594-0.154-2.467-0.222
			C37.348,69.947,36.31,69.913,35.107,69.913z M40.622,67.189c0.862,0.204,1.736,0.347,2.621,0.426
			c0.885,0.08,1.804,0.119,2.757,0.119c2.724,0,5.152-0.413,7.285-1.241c2.133-0.829,3.927-2.014,5.379-3.557
			s2.559-3.416,3.317-5.618c0.762-2.199,1.142-4.674,1.142-7.421c0-2.609-0.393-4.991-1.174-7.147
			c-0.784-2.156-1.923-4.011-3.422-5.565c-1.497-1.554-3.336-2.757-5.515-3.608c-2.178-0.851-4.663-1.276-7.455-1.276h-1.736
			c-1.021,0-1.81,0.084-2.366,0.255s-0.834,0.629-0.834,1.379V67.189z"/>
	</g>
</g>
<g>
</g>
<g>
</g>
<g>
</g>
<g>
</g>
<g>
</g>
<g>
</g>
</svg>
